<svg id="圖層_1" data-name="圖層 1" xmlns="http://www.w3.org/2000/svg" viewBox="0 0 1000 258.897"><path d="M972.486,0C957.427,0,946.2,8.265,946.2,30.082V156.916c0,32.166-19.41,48.334-49.132,48.173-29.166-.157-49.387-16.007-49.387-48.173V30.082C847.683,8.265,840.054.041,821.757,0c-18.52-.041-27.795,8.265-27.795,29.908,0,37.882.056,93.4.056,131.282,0,67.882,50.694,97.707,103.052,97.707C955.191,258.9,1000,229.072,1000,161.19c0-19.312,0-117.656,0-131.108C1000,8.265,989.564,0,972.486,0Z" fill="#07295c"/><path d="M507.518,74.6c-36.891,0-73.9,18.946-73.9,70.376,0,27.079-.133,73.464-.133,87.02,0,10.955,5.457,26.9,24.458,26.9s24.55-10.577,24.55-26.9c0-21.548-.329-59.941-.329-87.02,0-11.581,7.8-25.576,26.11-25.061,23.684.667,34.666.591,38.559-15.091C550.6,89.628,539.633,74.6,507.518,74.6Z" fill="#07295c"/><path d="M394.2,106.019c-17.543-20.612-44.684-31.47-71.968-31.422-18.862.033-37.792,5.278-53.664,16.117-27.288,19.417-37.683,45.094-37.683,76.406,0,53.433,36.749,91.777,91.347,91.777,30.612,0,44.79-13.694,44.79-13.694s2.416,13.694,23.6,13.694c13.185,0,22.6-9.29,22.6-23.248,0-8.3-.168-26.7-.168-68.529C413.047,139.407,407.358,121.485,394.2,106.019ZM322.249,212.457c-24.551,0-45.939-13.869-45.939-45.337,0-31.042,21.59-46.643,45.57-46.643,25.535,0,45.57,13.172,45.57,46.643C367.45,195.642,344.944,212.457,322.249,212.457Z" fill="#07295c"/><path d="M642.263,73.621c-73.146,0-89.022,60.845-89.022,89.738,0,63.651,37.625,95.538,93.478,95.538,38.579,0,59.877-14.6,69.955-24.633a11.574,11.574,0,0,0-.244-16.576l-12.614-12a11.571,11.571,0,0,0-14.887-.814c-7.519,5.553-21.212,12.62-42.21,12.62-26.5,0-42.929-17.292-42.929-39.08h93.732c25.67,0,30.45-16.773,30.45-32.083C727.972,123.493,709.767,73.621,642.263,73.621ZM603.79,146.329c0-18.093,15.433-35.073,38.473-35.073,24.89,0,39.041,19.236,39.041,35.073Z" fill="#07295c"/><path d="M220.032,33.2C205.448,21.025,186.154,0,122.677,0,63.062,0,0,40.867,0,128.931,0,220.058,60.123,258.9,125.771,258.9c57.59,0,77.51-21.15,90.808-33.466a11.583,11.583,0,0,0,.337-16.637L196.079,187.7a11.627,11.627,0,0,0-15.962-.513c-8.676,7.607-24.935,17.9-49.386,17.9-47.474,0-77.084-30.255-77.084-76.159,0-57.526,47.44-75.265,77.084-75.265,23.235,0,42.85,12.137,53.173,20.052a11.575,11.575,0,0,0,15.378-1.163l21.636-22.409A11.586,11.586,0,0,0,220.032,33.2Z" fill="#07295c"/></svg>